<?xml version="1.0" encoding="utf-8"?>
<!-- Generator: Adobe Illustrator 21.1.0, SVG Export Plug-In . SVG Version: 6.00 Build 0)  -->
<svg version="1.1" id="Layer_1" xmlns="http://www.w3.org/2000/svg" xmlns:xlink="http://www.w3.org/1999/xlink" x="0px" y="0px"
	 viewBox="0 0 400 400" style="enable-background:new 0 0 400 400;" xml:space="preserve">
<style type="text/css">
	.st0{fill:#74F9FF;}
</style>
<g>
	<path class="st0" d="M241.8,189.9L160.5,136c-6.8-4.4-15.4,0.5-15.8,9.5l-7.5,107.9c-0.7,9.5,8.1,16.3,15.6,11.6l89.1-53.9
		C248.8,206.7,249.1,194.8,241.8,189.9z"/>
	<path class="st0" d="M205.2,25c-95.8,0-179.5,78.7-186.7,175.5C11.3,297.5,82.9,376,178.8,376c95.8,0,179.5-78.5,186.7-175.5
		C372.9,103.5,301,25,205.2,25z M180.6,354.3c-84.1,0-146.9-68.9-140.6-153.8S119.5,46.7,203.6,46.7s146.9,68.9,140.6,153.8
		C337.7,285.4,264.4,354.3,180.6,354.3z"/>
</g>
</svg>
