<?xml version="1.0" encoding="utf-8"?>
<!-- Generator: Adobe Illustrator 21.1.0, SVG Export Plug-In . SVG Version: 6.00 Build 0)  -->
<svg version="1.1" xmlns="http://www.w3.org/2000/svg" xmlns:xlink="http://www.w3.org/1999/xlink" x="0px" y="0px"
	 viewBox="0 0 500 500" style="enable-background:new 0 0 500 500;" xml:space="preserve">
<style type="text/css">
	.st0{fill:#EBEBEB;}
	.st1{fill:#E6E6E6;}
	.st2{fill:#F0F0F0;}
	.st3{fill:#FAFAFA;}
	.st4{fill:#FFFFFF;}
	.st5{fill:#E0E0E0;}
	.st6{opacity:0.6;}
	.st7{fill:#F5F5F5;}
	.st8{display:none;}
	.st9{display:inline;}
	.st10{fill:#407BFF;}
	.st11{opacity:0.9;fill:#FFFFFF;}
	.st12{fill:#263238;}
	.st13{opacity:0.1;fill:#FFFFFF;}
	.st14{fill:#74F9FF;}
	.st15{opacity:0.5;}
	.st16{opacity:0.6;fill:#FFFFFF;}
	.st17{opacity:0.3;fill:#407BFF;}
	.st18{fill:#CE7A63;}
	.st19{opacity:0.2;}
	.st20{fill:#BA4D3C;}
</style>
<g id="Background_Complete">
	<g>
		<rect y="382.4" class="st0" width="500" height="0.3"/>
		<rect x="333.3" y="389.2" class="st0" width="73.8" height="0.3"/>
		<rect x="103.6" y="390.9" class="st0" width="8.7" height="0.3"/>
		<rect x="408.1" y="398.5" class="st0" width="19.2" height="0.3"/>
		<rect x="200" y="395.1" class="st0" width="48.7" height="0.3"/>
		<rect x="166.7" y="395.1" class="st0" width="24.4" height="0.3"/>
		<rect x="52.5" y="390.9" class="st0" width="33.1" height="0.3"/>
		<path class="st0" d="M237,337.8H43.9c-3.1,0-5.7-2.6-5.7-5.7V60.7c0-3.1,2.6-5.7,5.7-5.7H237c3.1,0,5.7,2.6,5.7,5.7v271.4
			C242.7,335.2,240.2,337.8,237,337.8z M43.9,55.2c-3,0-5.5,2.4-5.5,5.5v271.4c0,3,2.4,5.5,5.5,5.5H237c3,0,5.5-2.4,5.5-5.5V60.7
			c0-3-2.4-5.5-5.5-5.5H43.9z"/>
		<path class="st0" d="M453.3,337.8H260.2c-3.1,0-5.7-2.6-5.7-5.7V60.7c0-3.1,2.6-5.7,5.7-5.7h193.1c3.1,0,5.7,2.6,5.7,5.7v271.4
			C459,335.2,456.5,337.8,453.3,337.8z M260.2,55.2c-3,0-5.5,2.4-5.5,5.5v271.4c0,3,2.4,5.5,5.5,5.5h193.1c3,0,5.5-2.4,5.5-5.5V60.7
			c0-3-2.4-5.5-5.5-5.5H260.2z"/>
	</g>
	
		<rect x="132.5" y="285.3" transform="matrix(-1 -1.224647e-16 1.224647e-16 -1 282.4107 667.7336)" class="st1" width="17.5" height="97.1"/>
	<polygon class="st2" points="137.7,382.4 132.5,382.4 132.5,367.7 143.2,367.7 	"/>
	
		<rect x="350.1" y="285.3" transform="matrix(-1 -1.224647e-16 1.224647e-16 -1 717.5875 667.7336)" class="st1" width="17.5" height="97.1"/>
	
		<rect x="132.5" y="285.3" transform="matrix(-1 -1.224647e-16 1.224647e-16 -1 487.1036 660.5514)" class="st2" width="222.2" height="89.9"/>
	<polygon class="st2" points="349.4,382.4 354.6,382.4 354.6,367.7 343.9,367.7 	"/>
	
		<rect x="136.5" y="291.7" transform="matrix(-1 -1.224647e-16 1.224647e-16 -1 487.1036 619.2862)" class="st1" width="214" height="36"/>
	<path class="st2" d="M167.9,302.8h147.8c5.1,0,10-4.4,13.5-12.3l0,0H154.4l0,0C157.9,298.4,162.8,302.8,167.9,302.8z"/>
	
		<rect x="136.5" y="333.4" transform="matrix(-1 -1.224647e-16 1.224647e-16 -1 487.1036 702.843)" class="st1" width="214" height="36"/>
	<path class="st2" d="M167.9,344.6h147.8c5.1,0,10-4.4,13.5-12.3l0,0H154.4l0,0C157.9,340.2,162.8,344.6,167.9,344.6z"/>
	<rect x="53.1" y="78.9" class="st2" width="393.9" height="163.9"/>
	
		<rect x="175.8" y="-28.4" transform="matrix(-1.836970e-16 1 -1 -1.836970e-16 410.8307 -89.1693)" class="st3" width="148.5" height="378.4"/>
	<polygon class="st4" points="110.6,235.1 149.4,86.6 178,86.6 139.2,235.1 	"/>
	<polygon class="st4" points="145.8,235.1 184.6,86.6 197.5,86.6 158.6,235.1 	"/>
	<polygon class="st4" points="208.5,235.1 247.3,86.6 275.9,86.6 237.1,235.1 	"/>
	<polygon class="st4" points="280.6,235.1 319.5,86.6 332.3,86.6 293.4,235.1 	"/>
	
		<rect x="86.9" y="159.9" transform="matrix(-1.836970e-16 1 -1 -1.836970e-16 322.0149 -0.3534)" class="st5" width="148.5" height="2"/>
	
		<rect x="-12.5" y="159.9" transform="matrix(-1.836970e-16 1 -1 -1.836970e-16 222.588 99.0734)" class="st5" width="148.5" height="2"/>
	
		<rect x="82.1" y="157" transform="matrix(-1.836970e-16 1 -1 -1.836970e-16 317.1834 4.4781)" class="st2" width="148.5" height="7.7"/>
	<g>
		
			<rect x="182.5" y="159.9" transform="matrix(-1.836970e-16 1 -1 -1.836970e-16 417.5584 -95.8969)" class="st5" width="148.5" height="2"/>
		
			<rect x="177.7" y="157" transform="matrix(-1.836970e-16 1 -1 -1.836970e-16 412.727 -91.0655)" class="st2" width="148.5" height="7.7"/>
	</g>
	<g>
		
			<rect x="278.1" y="159.9" transform="matrix(-1.836970e-16 1 -1 -1.836970e-16 513.1475 -191.4861)" class="st5" width="148.5" height="2"/>
		
			<rect x="273.2" y="157" transform="matrix(-1.836970e-16 1 -1 -1.836970e-16 508.3161 -186.6546)" class="st2" width="148.5" height="7.7"/>
	</g>
	
		<rect x="366" y="159.9" transform="matrix(-1.836970e-16 1 -1 -1.836970e-16 608.7363 -287.0749)" class="st5" width="163.9" height="2"/>
	<path class="st5" d="M453.3,74.4H46.7c-0.9,0-1.7-0.8-1.7-1.7l0,0c0-0.9,0.8-1.7,1.7-1.7h406.6c0.9,0,1.7,0.8,1.7,1.7l0,0
		C455,73.6,454.2,74.4,453.3,74.4z"/>
	<g class="st6">
		<rect x="48.3" y="67.6" class="st7" width="83.2" height="231.8"/>
		<polygon class="st1" points="93.4,301.9 86.4,301.9 88.4,70.1 91.5,70.1 		"/>
		<polygon class="st1" points="70.3,301.9 66.9,301.9 67.9,70.1 69.4,70.1 		"/>
		<polygon class="st1" points="116.5,301.9 113.2,301.9 114.1,70.1 115.6,70.1 		"/>
	</g>
	<g class="st6">
		<rect x="367.5" y="67.6" class="st7" width="83.2" height="231.8"/>
		<polygon class="st1" points="400.1,301.9 393.2,301.9 395.1,70.1 398.2,70.1 		"/>
		<polygon class="st1" points="384.7,301.9 381.4,301.9 382.3,70.1 383.8,70.1 		"/>
		<polygon class="st1" points="420.3,301.9 417,301.9 417.9,70.1 419.4,70.1 		"/>
		<polygon class="st1" points="437.5,301.9 434.1,301.9 435,70.1 436.5,70.1 		"/>
	</g>
</g>
<g id="Background_Simple" class="st8">
	<g class="st9">
		<path class="st10" d="M52.8,205.7c0.1-4.4,0.5-8.8,1.1-13.2c5.5-37.5,30.6-76.9,67.7-90.7c22.1-8.2,46.6-1.1,70.2-2.2
			c29.6-1.4,57.7-16.5,83.8-29.1c35.2-17,69.9-30.2,108.5-17.7c32.1,10.3,59.6,35.9,65.5,69.3c5.6,31.8,1.5,66.1-7.9,96.8
			c-8.1,26.5-23.6,45.3-53,48.5c-19.2,2.1-38.5-2.5-57.4-6.2c-21.4-4.2-48.5-9.1-69,1c-19.6,9.6-31.7,30.9-49.3,43.4
			c-29,20.6-70.3,20.7-101.4,3.4C74.5,288.6,51.6,246.9,52.8,205.7z"/>
		<path class="st11" d="M52.8,205.7c0.1-4.4,0.5-8.8,1.1-13.2c5.5-37.5,30.6-76.9,67.7-90.7c22.1-8.2,46.6-1.1,70.2-2.2
			c29.6-1.4,57.7-16.5,83.8-29.1c35.2-17,69.9-30.2,108.5-17.7c32.1,10.3,59.6,35.9,65.5,69.3c5.6,31.8,1.5,66.1-7.9,96.8
			c-8.1,26.5-23.6,45.3-53,48.5c-19.2,2.1-38.5-2.5-57.4-6.2c-21.4-4.2-48.5-9.1-69,1c-19.6,9.6-31.7,30.9-49.3,43.4
			c-29,20.6-70.3,20.7-101.4,3.4C74.5,288.6,51.6,246.9,52.8,205.7z"/>
	</g>
</g>
<g id="Shadow_1_">
	<ellipse id="_x3C_Path_x3E__161_" class="st7" cx="250" cy="416.2" rx="193.9" ry="11.3"/>
</g>
<g id="Media_player">
	
		<rect x="392.1" y="296.1" transform="matrix(7.570986e-02 -0.9971 0.9971 7.570986e-02 72.9043 671.8661)" class="st12" width="13.5" height="1"/>
	<polygon class="st12" points="396.1,339.1 383.5,339.1 383.5,338.1 395.2,338.1 397.4,309 398.4,309.1 	"/>
	<polygon class="st12" points="392.9,335.6 175.2,335.6 191.7,117.9 409.4,117.9 	"/>
	<polygon class="st13" points="275.2,335.6 250.2,335.6 355.9,117.9 380.9,117.9 	"/>
	<polygon class="st13" points="245.2,335.6 220.2,335.6 325.9,117.9 350.9,117.9 	"/>
	<polygon class="st4" points="395.9,295.8 178.2,295.8 178.5,291.4 396.2,291.4 	"/>
	<polygon class="st14" points="227.3,295.8 178.2,295.8 178.5,291.4 227.6,291.4 	"/>
	<path class="st14" d="M227.1,298L227.1,298c-0.9,0-1.6-0.7-1.5-1.6l0.4-5.5c0.1-0.9,0.9-1.6,1.8-1.6l0,0c0.9,0,1.6,0.7,1.5,1.6
		l-0.4,5.5C228.8,297.3,228,298,227.1,298z"/>
	<path class="st4" d="M206.3,312.9l-9.8-5.9c-1.5-0.9-3.4,0.1-3.5,1.8l-0.9,11.9c-0.1,1.8,1.8,3.1,3.5,2.2l10.8-5.9
		C207.8,316.1,207.8,313.9,206.3,312.9z"/>
	<path class="st4" d="M276.9,312.9l-9.8-5.9c-1.5-0.9-3.4,0.1-3.5,1.8l-0.9,11.9c-0.1,1.8,1.8,3.1,3.5,2.2l10.8-5.9
		C278.4,316.1,278.5,313.9,276.9,312.9z"/>
	<path class="st4" d="M285.5,312.9l-9.8-5.9c-1.5-0.9-3.4,0.1-3.5,1.8l-0.9,11.9c-0.1,1.8,1.8,3.1,3.5,2.2l10.8-5.9
		C287,316.1,287,313.9,285.5,312.9z"/>
	<path class="st4" d="M229.2,323.3L229.2,323.3c-1.2,0-2.1-1-2-2.1l0.9-12.3c0.1-1.2,1.1-2.1,2.3-2.1l0,0c1.2,0,2.1,1,2,2.1
		l-0.9,12.3C231.4,322.4,230.3,323.3,229.2,323.3z"/>
	<path class="st4" d="M237,323.3L237,323.3c-1.2,0-2.1-1-2-2.1l0.9-12.3c0.1-1.2,1.1-2.1,2.3-2.1l0,0c1.2,0,2.1,1,2,2.1l-0.9,12.3
		C239.2,322.4,238.1,323.3,237,323.3z"/>
	<path class="st4" d="M284.1,323.3L284.1,323.3c-1.2,0-2.1-1-2-2.1l0.9-12.3c0.1-1.2,1.1-2.1,2.3-2.1l0,0c1.2,0,2.1,1,2,2.1
		l-0.9,12.3C286.3,322.4,285.3,323.3,284.1,323.3z"/>
	<path class="st4" d="M376.7,322.5h-22.7c-1.8,0-3.1-1.5-3-3.3l0.6-8.4c0.1-1.8,1.7-3.3,3.5-3.3h22.7c1.8,0,3.1,1.5,3,3.3l-0.6,8.4
		C380.1,321,378.5,322.5,376.7,322.5z M355.1,309c-1,0-1.8,0.8-1.9,1.8l-0.6,8.4c-0.1,1,0.7,1.8,1.6,1.8h22.7c1,0,1.8-0.8,1.9-1.8
		l0.6-8.4c0.1-1-0.7-1.8-1.6-1.8H355.1z"/>
</g>
<g id="Character_1_">
	<g>
		<path class="st10" d="M178,92c-13.3,3.5-14.6,32-27.2,27c-12.6-5-15.3,14.5,10.7,13.1c-4.7,7.1,9.2,13,25.1,4.7
			c0.5,6.7,19.8,11.6,18-5.7c-1.8-17.3,6.5-29.7-5.5-33.9C194.2,88.4,179.4,90.9,178,92z"/>
		<path class="st15" d="M178,92c-13.3,3.5-14.6,32-27.2,27c-12.6-5-15.3,14.5,10.7,13.1c-4.7,7.1,9.2,13,25.1,4.7
			c0.5,6.7,19.8,11.6,18-5.7c-1.8-17.3,6.5-29.7-5.5-33.9C194.2,88.4,179.4,90.9,178,92z"/>
	</g>
	<path class="st12" d="M158.1,416.2c7.7,0,8.8-0.1,13.1-0.3c3.7-0.1,4.6,0.3,7.6,0.3c2.5-0.1,2.4-2.4,1.6-5.2
		c-0.4-1.4-1-4.3-1.5-6.5l-11.3-0.8c-1.6,3-5.2,7.4-9.6,8C153.9,412.2,155.1,416.2,158.1,416.2z"/>
	<path class="st12" d="M165.1,390.2c5.6-5.2,8.9-10.4,11.4-13.9c2.1-3,2.5-2.3,4.8-5.2c1.5-2,0.1-4.7-2-5.4
		c-1.7-0.5-3.9-0.8-5.8-1.7l-7.7,5.7c1.4,3.6-0.5,13.9-4.4,18.1C158.5,390.9,162.8,392.3,165.1,390.2z"/>
	<g>
		<path class="st10" d="M139.1,202.7c0,0-22.2,63.6-25.1,86.8c-2.8,22.8,52.3,81.9,52.3,81.9c1.3,1,6.9-5.9,7.2-7.7
			c-13.7-26.5-22.2-65.7-36-75.3c33-48.9,37.6-80.2,37.6-80.2L139.1,202.7z"/>
		<path class="st16" d="M139.1,202.7c0,0-22.2,63.6-25.1,86.8c-2.8,22.8,52.3,81.9,52.3,81.9c1.3,1,6.9-5.9,7.2-7.7
			c-13.7-26.5-22.2-65.7-36-75.3c33-48.9,37.6-80.2,37.6-80.2L139.1,202.7z"/>
	</g>
	<path class="st17" d="M154.8,225c0,0-1.8,23.4-2.3,39.3c4.4-7.8,7.9-14.8,10.8-21.2L154.8,225z"/>
	<path class="st14" d="M159.5,364.7c1.2,1.6,3.3,4.5,4.9,6.7c0.5,0.7,1.3,1.1,1.7,0.9c3.4-1.6,7.6-6,8.9-7.4
		c0.3-0.3,0.2-0.9-0.2-1.5l-3.8-6.3c-0.5-0.9-1.4-1.3-1.9-1l-9.8,6.8C159,363.2,159,364,159.5,364.7z"/>
	<g>
		<path class="st10" d="M149.9,204.4c0,0,8.3,64,13,94.8c5,32.4,5.6,84.3,4.4,105.4c1.8,1.1,8.4,0.3,12-0.8c0,0,21.5-69.4,5.7-101.5
			c10.2-74.9-4.6-93.2-4.6-93.2L149.9,204.4z"/>
		<path class="st16" d="M149.9,204.4c0,0,8.3,64,13,94.8c5,32.4,5.6,84.3,4.4,105.4c1.8,1.1,8.4,0.3,12-0.8c0,0,21.5-69.4,5.7-101.5
			c10.2-74.9-4.6-93.2-4.6-93.2L149.9,204.4z"/>
	</g>
	<path class="st14" d="M166.8,395.7c-0.2,1.9-0.7,5.2-1.2,7.7c-0.2,0.9,0.1,1.8,0.7,2c4.8,1.7,12.1,0.6,14.5,0.2
		c0.4-0.1,0.8-0.6,1-1.2l1.4-7.1c0.2-1-0.2-1.9-0.9-2l-14.3-1C167.4,394.2,166.9,394.9,166.8,395.7z"/>
	<path class="st18" d="M160.3,150.4l0.1,0.6l0.1,0.5l0.2,0.9c0.1,0.6,0.2,1.2,0.2,1.7c0.1,1.2,0.2,2.3,0.2,3.4
		c0,2.3-0.1,4.6-0.5,6.8c-0.8,4.5-2.4,8.9-4.8,12.9c-1.2,2-2.6,3.8-4.1,5.5c-0.8,0.8-1.6,1.6-2.4,2.4l-1.3,1.1
		c-0.5,0.4-0.9,0.7-1.4,1c-2,1.3-4.4,2.5-7.4,2.8c-1.5,0.2-3.1,0.1-4.7-0.5c-0.8-0.3-1.5-0.6-2.2-1.1c-0.3-0.2-0.7-0.5-1-0.8
		c-0.1-0.1-0.3-0.3-0.4-0.5l-0.5-0.6c-1.2-1.3-1.1-3.2,0.1-4.4c1.3-1.2,3.2-1.1,4.4,0.1c-0.1-0.1-0.1-0.1-0.1-0.1c0,0,0,0,0.1,0
		c0,0,0.1,0,0.1,0c0.1,0,0.2,0,0.3-0.1c0.2-0.1,0.4-0.1,0.6-0.2c0.3-0.2,0.7-0.4,1-0.7c0.7-0.6,1.7-1.4,2.6-2.5
		c0.2-0.3,0.5-0.5,0.7-0.8l0.8-0.9c0.5-0.6,1.1-1.2,1.5-1.8c1-1.2,1.8-2.5,2.5-3.9c1.4-2.7,2.3-5.7,2.8-8.7c0.2-1.5,0.3-3.1,0.3-4.6
		c0-0.8,0-1.6-0.1-2.3l-0.1-1.1l-0.1-0.8l-0.1-0.7c-0.5-3.4,1.9-6.7,5.3-7.2C156.5,145.2,159.5,147.3,160.3,150.4z"/>
	<path class="st14" d="M144.5,155.8c-0.8,4-1.8,7-2.7,16.8c-1,8.2-1.7,16.4-2.6,30l41.3,6.5c1-11.8,4.5-24.8,16-49.8
		c2.7-5.8-0.2-12.2-6.2-13.8c-1.6-0.4-3.3-0.8-5.1-1.2c-6.9-1.4-12.5-2.5-18.7-3c-2.1-0.1-4.2-0.2-6.3-0.3
		C152.6,141.1,145.9,148.6,144.5,155.8z"/>
	<path class="st18" d="M187.1,123.1c-2.6,5.8-6.3,16.5-3.1,21.1c0,0-5.6-1.8-18.9,3.8c-2.7-5.6,0.1-6.8,0.1-6.8
		c7.1-0.5,8.1-5.5,8-10.3L187.1,123.1z"/>
	<path class="st4" d="M168,147c3.9,1.2,4.2,7.4,4.2,7.4s10.7-5.3,14.5-9.6c-1.3-1-3.2-2.8-3.2-2.8S170.6,145,168,147z"/>
	<path class="st4" d="M164.3,145.7c0,0-3.6,0.4-5.6,5c0.5-8.9,4.8-9.8,4.8-9.8s1.4-0.7,3.7,0C163.7,142.2,164.3,145.7,164.3,145.7z"
		/>
	<path class="st19" d="M181.5,126.3l-8.2,4.7c0,1.1,0,2.3-0.2,3.4c2.7,0,6.8-2.2,7.7-4.8C181.3,128.3,181.6,127,181.5,126.3z"/>
	<path class="st18" d="M194.2,111.8c-3.4,9.4-4.6,13.5-10.9,17.3c-9.5,5.7-20.4,0.2-19.9-9.9c0.4-9.1,5.9-23,16.4-24.6
		C190.2,93,197.5,102.4,194.2,111.8z"/>
	<g>
		<path class="st10" d="M183.1,90.1c-7.3,0-18.1,6.8-8.7,8.8c-0.1,3,5.4,3.3,9.4,1.8c-0.7,2.2,2.9,6.7,7.9,5.5c-2.9,1.5-3.5,9,0,9.5
			c3.5,0.6,10.7,2.8,10.1-9.5C201.1,93.8,190.9,90.1,183.1,90.1z"/>
		<path class="st15" d="M183.1,90.1c-7.3,0-18.1,6.8-8.7,8.8c-0.1,3,5.4,3.3,9.4,1.8c-0.7,2.2,2.9,6.7,7.9,5.5c-2.9,1.5-3.5,9,0,9.5
			c3.5,0.6,10.7,2.8,10.1-9.5C201.1,93.8,190.9,90.1,183.1,90.1z"/>
	</g>
	<g>
		<path class="st10" d="M202.8,80.3c-9.4-5.9-18.3,4-16.6,9.5l13.1,6C206.5,96,211,85.3,202.8,80.3z"/>
		<path class="st15" d="M202.8,80.3c-9.4-5.9-18.3,4-16.6,9.5l13.1,6C206.5,96,211,85.3,202.8,80.3z"/>
	</g>
	<path class="st14" d="M190.1,92.5c-3.6-1.1-7.5-1.7-5-3.1c2.6-1.5,8.4,0,11.6,2.3c3.5,2.5,5.6,6.6,2.4,6.1
		C196.1,97.2,197.8,94.9,190.1,92.5z"/>
	<path class="st12" d="M181.5,111.5c-0.2,0.8-0.9,1.4-1.4,1.2c-0.5-0.1-0.7-0.9-0.5-1.7c0.2-0.8,0.9-1.4,1.4-1.2
		C181.5,109.9,181.7,110.7,181.5,111.5z"/>
	<path class="st12" d="M171.4,108.8c-0.2,0.8-0.9,1.4-1.4,1.2c-0.5-0.1-0.7-0.9-0.5-1.7c0.2-0.8,0.9-1.4,1.4-1.2
		C171.4,107.2,171.7,108,171.4,108.8z"/>
	<path class="st12" d="M171.1,107.2l-1.7-1C169.4,106.2,169.9,108,171.1,107.2z"/>
	<path class="st20" d="M174,111.3c0,0-2.4,3.1-4.4,4.5c0.7,1.2,2.7,1.2,2.7,1.2L174,111.3z"/>
	<path class="st12" d="M175.9,121c-0.4,0-0.9-0.1-1.4-0.2c-0.1,0-0.2-0.2-0.2-0.3c0-0.1,0.2-0.2,0.3-0.2c3.5,0.8,5.9-1.3,5.9-1.3
		c0.1-0.1,0.3-0.1,0.3,0c0.1,0.1,0.1,0.3,0,0.3C180.8,119.5,178.9,121.2,175.9,121z"/>
	<path class="st18" d="M195.1,120.5c-1.7,1.7-3.8,2.5-5.6,2.4c-2.7,0-3.2-2.8-1.6-5.2c1.4-2.1,4.5-4.6,6.8-3.5
		C196.9,115.4,197,118.5,195.1,120.5z"/>
	<path class="st12" d="M184.5,106.8c-0.1,0-0.2-0.1-0.3-0.2c-1.1-1.8-2.9-1.7-3-1.7c-0.3,0-0.5-0.2-0.5-0.5c0-0.3,0.2-0.5,0.5-0.5
		c0.1,0,2.4-0.1,3.8,2.1c0.1,0.2,0.1,0.5-0.2,0.7C184.8,106.8,184.7,106.8,184.5,106.8z"/>
	<path class="st12" d="M168.9,102.5c-0.1,0-0.2,0-0.3-0.1c-0.2-0.2-0.2-0.5,0-0.7c2-1.9,4.2-1.5,4.3-1.5c0.3,0.1,0.4,0.3,0.3,0.6
		c-0.1,0.3-0.3,0.4-0.6,0.4c-0.1,0-1.8-0.3-3.4,1.2C169.1,102.5,169,102.5,168.9,102.5z"/>
	<path class="st12" d="M181.2,109.9l-1.7-1C179.5,108.9,180,110.6,181.2,109.9z"/>
	<path class="st18" d="M125.3,179.8l0.4,2.7c0.2,1,0.8,1.9,1.7,2.3l4.3,2.1c1.7,0.9,3.7,0.8,5.4-0.1l1-0.6c-0.4-4.5-4.2-9.1-4.2-9.1
		l-0.9-1.4c-0.8-1.3-2.4-1.6-3.6-0.9l-2.8,1.8C125.6,177.3,125.1,178.6,125.3,179.8z"/>
	<path class="st12" d="M142.3,186.9h-9.8c-0.9,0-1.8-0.8-2-1.7l-4.6-21.3c-0.2-0.9,0.4-1.7,1.3-1.7h9.8c0.9,0,1.8,0.8,2,1.7
		l4.6,21.3C143.8,186.1,143.2,186.9,142.3,186.9z"/>
	<path class="st18" d="M139,174.3l3-0.7c1.1-0.3,2.3,0.1,3.2,0.8l4.1,3.7c1.6,1.5,2.4,3.6,2.2,5.8l-0.2,1.3
		c-5,1.5-11.4-0.6-11.4-0.6l-1.9-0.4c-1.7-0.3-2.8-1.9-2.5-3.5l0.7-3.8C136.6,175.7,137.6,174.6,139,174.3z"/>
	<path class="st18" d="M197,166.9c-0.2,0.9-0.4,1.5-0.6,2.3c-0.2,0.7-0.4,1.4-0.6,2.1c-0.4,1.4-0.9,2.8-1.3,4.2
		c-1,2.8-2,5.5-3.3,8.3c-1.2,2.7-2.6,5.4-4.1,8c-1.5,2.6-3.3,5.2-5.3,7.6l-0.1,0.2c-0.2,0.3-0.4,0.5-0.7,0.7
		c-1.6,1.3-3.4,1.9-4.9,2.1c-1.5,0.2-2.8,0.1-3.8-0.1c-2.2-0.4-3.9-1.1-5.4-1.8c-3.1-1.5-5.8-3.2-8.3-5c-2.5-1.8-4.9-3.7-7.2-5.8
		c-1.1-1-2.3-2-3.4-3.1c-1.1-1-2.2-2.1-3.3-3.2c-1.2-1.3-1.1-3.3,0.1-4.5c1.1-1,2.7-1.1,3.8-0.4l0.1,0c2.4,1.5,4.9,3.1,7.4,4.6
		c2.5,1.5,5,2.9,7.4,4.2c2.5,1.3,5,2.5,7.3,3.3c1.1,0.4,2.3,0.7,3,0.7c0.4,0,0.6,0,0.6-0.1c0,0-0.5,0-0.9,0.4l-0.8,0.9
		c1.4-2.1,2.6-4.2,3.8-6.5c1.1-2.3,2.2-4.7,3.2-7.1c1-2.4,1.9-4.9,2.7-7.4c0.4-1.3,0.8-2.5,1.2-3.8l0.6-1.9l0.5-1.8l0.1-0.2
		c1-3.4,4.5-5.3,7.8-4.3C195.9,160.3,197.8,163.6,197,166.9z"/>
	<path class="st14" d="M193.4,147.1c7,5,7.4,12.4,3.6,26.7c-5.1,2.5-17.4-0.7-17.4-0.7S183.4,151,193.4,147.1z"/>
	<path class="st14" d="M157.6,141.5c-8.6,0.7-12.7,6.9-16.8,21c3.1,4.8,15.3,8.4,15.3,8.4S164.1,150,157.6,141.5z"/>
</g>
</svg>
