<?xml version="1.0" encoding="utf-8"?>
<!-- Generator: Adobe Illustrator 21.1.0, SVG Export Plug-In . SVG Version: 6.00 Build 0)  -->
<svg version="1.1" id="Layer_1" xmlns="http://www.w3.org/2000/svg" xmlns:xlink="http://www.w3.org/1999/xlink" x="0px" y="0px"
	 viewBox="0 0 400 400" style="enable-background:new 0 0 400 400;" xml:space="preserve">
<style type="text/css">
	.st0{fill:#74F9FF;}
</style>
<g>
	<path class="st0" d="M610.8,377.9L574.8,357c-3-1.7-6.8,0.2-7,3.7l-3.3,41.8c-0.3,3.7,3.6,6.3,6.9,4.5l39.4-20.9
		C613.9,384.4,614,379.8,610.8,377.9z"/>
	<path class="st0" d="M594.6,314c-42.4,0-79.4,30.5-82.6,68c-3.2,37.6,28.5,68,70.9,68c42.4,0,79.4-30.4,82.6-68
		C668.8,344.4,637,314,594.6,314z M583.7,441.6c-37.2,0-65-26.7-62.2-59.6c2.8-32.9,35.2-59.6,72.4-59.6c37.2,0,65,26.7,62.2,59.6
		C653.2,414.9,620.8,441.6,583.7,441.6z"/>
</g>
</svg>
